<svg width="24" height="24" viewBox="0 0 24 24" fill="none" xmlns="http://www.w3.org/2000/svg">
<path fill-rule="evenodd" clip-rule="evenodd" d="M10.0965 2.6447C10.6925 0.796413 13.3075 0.796411 13.9035 2.6447L15.5611 7.78523L20.9412 7.78523C22.875 7.78523 23.6829 10.2567 22.1226 11.399L17.7569 14.5951L19.4214 19.757C20.0164 21.6023 17.9009 23.1298 16.3365 21.9845L12 18.8098L7.66352 21.9845C6.09909 23.1298 3.98358 21.6023 4.5786 19.757L6.24305 14.5951L1.87734 11.399C0.31704 10.2567 1.12502 7.78523 3.05878 7.78523H8.43892L10.0965 2.6447ZM13.6576 8.39902L12 3.25848L10.3424 8.39902C10.076 9.22522 9.30702 9.78523 8.43892 9.78523H3.05878L7.42449 12.9814C8.12012 13.4907 8.41112 14.3884 8.14654 15.2089L6.48209 20.3708L10.8186 17.196C11.522 16.681 12.478 16.681 13.1814 17.196L17.5179 20.3708L15.8534 15.2089C15.5889 14.3884 15.8799 13.4907 16.5755 12.9814L20.9412 9.78523H15.5611C14.693 9.78523 13.924 9.22522 13.6576 8.39902Z" fill="#121127"/>
</svg>
