<svg width="24" height="24" viewBox="0 0 24 24" fill="none" xmlns="http://www.w3.org/2000/svg">
<path d="M10 20H14C14 21.1046 13.1046 22 12 22C10.8954 22 10 21.1046 10 20Z" fill="#444BD3"/>
<path fill-rule="evenodd" clip-rule="evenodd" d="M6.88269 6.88269C6.31808 7.80485 6.0002 8.8827 6.0002 10.015V13.3354C6.0002 14.0691 5.6552 14.7601 5.06874 15.2011C3.02136 16.7405 4.11005 20 6.67157 20H17.3287C18.1149 20 18.7623 19.693 19.2229 19.2229L6.88269 6.88269Z" fill="#90ECF4"/>
<path d="M12 2C11.4477 2 11 2.44772 11 3V4C10.4477 4 10 4.44772 10 5C10 5.55228 10.4477 6 11 6H12C14.2091 6 16 7.79086 16 10V11C16 11.5523 16.4477 12 17 12C17.5523 12 18 11.5523 18 11V10C18 7.027 15.8377 4.55904 13 4.08296V3C13 2.44772 12.5523 2 12 2Z" fill="#90ECF4"/>
<path fill-rule="evenodd" clip-rule="evenodd" d="M2.29289 2.29289C2.68342 1.90237 3.31658 1.90237 3.70711 2.29289L21.7071 20.2929C22.0976 20.6834 22.0976 21.3166 21.7071 21.7071C21.3166 22.0976 20.6834 22.0976 20.2929 21.7071L2.29289 3.70711C1.90237 3.31658 1.90237 2.68342 2.29289 2.29289Z" fill="#444BD3"/>
</svg>
