<svg width="24" height="24" viewBox="0 0 24 24" fill="none" xmlns="http://www.w3.org/2000/svg">
<path d="M8 2C5.79086 2 4 3.79087 4 6V20.0008C4 21.6842 5.95294 22.6146 7.26018 21.5538L11.3699 18.2191C11.7371 17.9211 12.2629 17.9211 12.6301 18.2191L16.7398 21.5538C18.047 22.6146 19.9999 21.6842 19.9999 20.0008V6C19.9999 3.79086 18.2091 2 15.9999 2H8Z" fill="#90ECF4"/>
<path fill-rule="evenodd" clip-rule="evenodd" d="M12 7C12.5523 7 13 7.44772 13 8V9H14C14.5523 9 15 9.44772 15 10C15 10.5523 14.5523 11 14 11H13V12C13 12.5523 12.5523 13 12 13C11.4477 13 11 12.5523 11 12V11H10C9.44772 11 9 10.5523 9 10C9 9.44772 9.44772 9 10 9H11V8C11 7.44772 11.4477 7 12 7Z" fill="#444BD3"/>
</svg>
