<svg width="24" height="24" viewBox="0 0 24 24" fill="none" xmlns="http://www.w3.org/2000/svg">
<path d="M12 2C6.47715 2 2 6.47715 2 12C2 17.5228 6.47715 22 12 22C17.5228 22 22 17.5228 22 12C22 6.47715 17.5228 2 12 2Z" fill="#90ECF4"/>
<path fill-rule="evenodd" clip-rule="evenodd" d="M13.7071 8.29289C14.0976 8.68342 14.0976 9.31658 13.7071 9.70711L11.4142 12L13.7071 14.2929C14.0976 14.6834 14.0976 15.3166 13.7071 15.7071C13.3166 16.0976 12.6834 16.0976 12.2929 15.7071L9.29289 12.7071C8.90237 12.3166 8.90237 11.6834 9.29289 11.2929L12.2929 8.29289C12.6834 7.90237 13.3166 7.90237 13.7071 8.29289Z" fill="#444BD3"/>
</svg>
