<svg width="24" height="24" viewBox="0 0 24 24" fill="none" xmlns="http://www.w3.org/2000/svg">
<path d="M3 9.4C3 7.15979 3 6.03968 3.43597 5.18404C3.81947 4.43139 4.43139 3.81947 5.18404 3.43597C6.03968 3 7.15979 3 9.4 3H14.6C16.8402 3 17.9603 3 18.816 3.43597C19.5686 3.81947 20.1805 4.43139 20.564 5.18404C21 6.03968 21 7.15979 21 9.4V14.6C21 16.8402 21 17.9603 20.564 18.816C20.1805 19.5686 19.5686 20.1805 18.816 20.564C17.9603 21 16.8402 21 14.6 21H9.4C7.15979 21 6.03968 21 5.18404 20.564C4.43139 20.1805 3.81947 19.5686 3.43597 18.816C3 17.9603 3 16.8402 3 14.6V9.4Z" fill="#90ECF4"/>
<path fill-rule="evenodd" clip-rule="evenodd" d="M13.7071 8.29289C14.0976 8.68342 14.0976 9.31658 13.7071 9.70711L11.4142 12L13.7071 14.2929C14.0976 14.6834 14.0976 15.3166 13.7071 15.7071C13.3166 16.0976 12.6834 16.0976 12.2929 15.7071L9.29289 12.7071C8.90237 12.3166 8.90237 11.6834 9.29289 11.2929L12.2929 8.29289C12.6834 7.90237 13.3166 7.90237 13.7071 8.29289Z" fill="#444BD3"/>
</svg>
