<svg width="24" height="24" viewBox="0 0 24 24" fill="none" xmlns="http://www.w3.org/2000/svg">
<path d="M22 17.1459C22 16.0645 21.3775 15.1831 20.8738 14.611C20.4811 14.165 20 13.3571 20 12C20 10.6429 20.4811 9.83503 20.8738 9.38895C21.3775 8.81687 22 7.93551 22 6.8541C22 5.27782 20.7222 4 19.1459 4L4.85408 4.00002C3.27782 4.00002 2 5.27784 2 6.85411C2 7.93551 2.62254 8.81687 3.12618 9.38894C3.51891 9.83503 4 10.6429 4 12C4 13.3571 3.51891 14.165 3.12619 14.611C2.62255 15.1831 2 16.0645 2 17.1459C2 18.7222 3.27783 20 4.8541 20L19.1459 20C20.7222 20 22 18.7222 22 17.1459Z" fill="#90ECF4"/>
<path fill-rule="evenodd" clip-rule="evenodd" d="M10 11C9.44772 11 9 10.5523 9 10C9 9.44772 9.44772 9 10 9C10.5523 9 11 9.44772 11 10C11 10.5523 10.5523 11 10 11ZM14.7071 10.7071L10.7071 14.7071C10.3166 15.0976 9.68342 15.0976 9.29289 14.7071C8.90237 14.3166 8.90237 13.6834 9.29289 13.2929L13.2929 9.29289C13.6834 8.90237 14.3166 8.90237 14.7071 9.29289C15.0976 9.68342 15.0976 10.3166 14.7071 10.7071ZM13 14C13 14.5523 13.4477 15 14 15C14.5523 15 15 14.5523 15 14C15 13.4477 14.5523 13 14 13C13.4477 13 13 13.4477 13 14Z" fill="#444BD3"/>
</svg>
