<svg width="24" height="24" viewBox="0 0 24 24" fill="none" xmlns="http://www.w3.org/2000/svg">
<path d="M4 4C2.89543 4 2 4.89543 2 6V16C2 17.1046 2.89543 18 4 18H14V6C14 4.89543 13.1046 4 12 4H4Z" fill="#90ECF4"/>
<path d="M16.6126 7H14V18H20C21.1046 18 22 17.1046 22 16V12.0886C22 11.5261 21.7631 10.9896 21.3475 10.6106L17.9601 7.52209C17.5917 7.18619 17.1111 7 16.6126 7Z" fill="#444BD3"/>
<path fill-rule="evenodd" clip-rule="evenodd" d="M7 20C8.10457 20 9 19.1046 9 18C9 16.8954 8.10457 16 7 16C5.89543 16 5 16.8954 5 18C5 19.1046 5.89543 20 7 20ZM19.4142 19.4142C19.7893 19.0391 20 18.5304 20 18H18L16 18C16 18.5304 16.2107 19.0391 16.5858 19.4142C16.9609 19.7893 17.4696 20 18 20C18.5304 20 19.0391 19.7893 19.4142 19.4142Z" fill="#444BD3"/>
</svg>
