<svg width="24" height="24" viewBox="0 0 24 24" fill="none" xmlns="http://www.w3.org/2000/svg">
<path d="M12 5C12 4.44772 12.4477 4 13 4H19.382C20.1253 4 20.6088 4.78231 20.2764 5.44721L18.2236 9.55279C18.0828 9.83431 18.0828 10.1657 18.2236 10.4472L20.2764 14.5528C20.6088 15.2177 20.1253 16 19.382 16H14C12.8954 16 12 15.1046 12 14V5Z" fill="#90ECF4"/>
<path d="M6 2H12C13.1046 2 14 2.89543 14 4V13C14 13.5523 13.5523 14 13 14H6V2Z" fill="#444BD3"/>
<path d="M4 3C4 2.44772 4.44772 2 5 2H6V21C6 21.5523 5.55228 22 5 22C4.44772 22 4 21.5523 4 21V3Z" fill="#90ECF4"/>
</svg>
