<svg width="24" height="24" viewBox="0 0 24 24" fill="none" xmlns="http://www.w3.org/2000/svg">
<path d="M15.5681 3C15.3157 2.99997 15.0699 2.99994 14.8618 3.01695C14.6332 3.03563 14.3634 3.07969 14.092 3.21799C13.7157 3.40974 13.4097 3.7157 13.218 4.09202C13.0797 4.36345 13.0356 4.63318 13.017 4.86178C12.9999 5.06993 13 5.31572 13 5.56809L13 18.4319C13 18.6843 12.9999 18.9301 13.017 19.1382C13.0356 19.3668 13.0797 19.6366 13.218 19.908C13.4097 20.2843 13.7157 20.5903 14.092 20.782C14.3634 20.9203 14.6332 20.9644 14.8618 20.9831C15.0699 21.0001 15.3156 21 15.568 21H18.4319C18.6843 21 18.9301 21.0001 19.1382 20.9831C19.3668 20.9644 19.6366 20.9203 19.908 20.782C20.2843 20.5903 20.5903 20.2843 20.782 19.908C20.9203 19.6366 20.9644 19.3668 20.9831 19.1382C21.0001 18.9301 21 18.6843 21 18.4319V5.56811C21 5.31574 21.0001 5.06992 20.9831 4.86178C20.9644 4.63318 20.9203 4.36345 20.782 4.09202C20.5903 3.7157 20.2843 3.40974 19.908 3.21799C19.6366 3.07969 19.3668 3.03563 19.1382 3.01695C18.9301 2.99994 18.6843 2.99997 18.4319 3L15.5681 3Z" fill="#90ECF4"/>
<path d="M5.56811 3C5.31573 2.99997 5.06993 2.99994 4.86178 3.01695C4.63318 3.03563 4.36345 3.07969 4.09202 3.21799C3.7157 3.40974 3.40974 3.7157 3.21799 4.09202C3.07969 4.36345 3.03563 4.63318 3.01695 4.86178C2.99994 5.06993 2.99997 5.31572 3 5.56809L3 18.4319C2.99997 18.6843 2.99994 18.9301 3.01695 19.1382C3.03563 19.3668 3.07969 19.6366 3.21799 19.908C3.40974 20.2843 3.7157 20.5903 4.09202 20.782C4.36345 20.9203 4.63318 20.9644 4.86178 20.9831C5.0699 21.0001 5.31564 21 5.56797 21H8.43192C8.68426 21 8.93011 21.0001 9.13824 20.9831C9.36683 20.9644 9.63656 20.9203 9.90799 20.782C10.2843 20.5903 10.5903 20.2843 10.782 19.908C10.9203 19.6366 10.9644 19.3668 10.9831 19.1382C11.0001 18.9301 11 18.6843 11 18.4319V5.56811C11 5.31574 11.0001 5.06992 10.9831 4.86178C10.9644 4.63318 10.9203 4.36345 10.782 4.09202C10.5903 3.7157 10.2843 3.40974 9.90799 3.21799C9.63656 3.07969 9.36683 3.03563 9.13824 3.01695C8.93008 2.99994 8.68429 2.99997 8.43192 3L5.56811 3Z" fill="#444BD3"/>
</svg>
