<svg width="24" height="24" viewBox="0 0 24 24" fill="none" xmlns="http://www.w3.org/2000/svg">
<path d="M5.56811 13C5.31573 13 5.06993 12.9999 4.86178 13.017C4.63318 13.0356 4.36345 13.0797 4.09202 13.218C3.7157 13.4097 3.40974 13.7157 3.21799 14.092C3.07969 14.3634 3.03563 14.6332 3.01695 14.8618C2.99994 15.0699 2.99997 15.3157 3 15.5681L3 18.4319C2.99997 18.6843 2.99994 18.9301 3.01695 19.1382C3.03563 19.3668 3.07969 19.6366 3.21799 19.908C3.40974 20.2843 3.7157 20.5903 4.09202 20.782C4.36345 20.9203 4.63318 20.9644 4.86178 20.9831C5.06992 21.0001 5.3157 21 5.56807 21H18.4319C18.6843 21 18.9301 21.0001 19.1382 20.9831C19.3668 20.9644 19.6366 20.9203 19.908 20.782C20.2843 20.5903 20.5903 20.2843 20.782 19.908C20.9203 19.6366 20.9644 19.3668 20.9831 19.1382C21.0001 18.9301 21 18.6844 21 18.432V15.5681C21 15.3158 21.0001 15.0699 20.9831 14.8618C20.9644 14.6332 20.9203 14.3634 20.782 14.092C20.5903 13.7157 20.2843 13.4097 19.908 13.218C19.6366 13.0797 19.3668 13.0356 19.1382 13.017C18.9301 12.9999 18.6843 13 18.4319 13L5.56811 13Z" fill="#90ECF4"/>
<path d="M5.56811 3C5.31573 2.99997 5.06993 2.99994 4.86178 3.01695C4.63318 3.03563 4.36345 3.07969 4.09202 3.21799C3.7157 3.40974 3.40974 3.7157 3.21799 4.09202C3.07969 4.36345 3.03563 4.63318 3.01695 4.86178C2.99994 5.06993 2.99997 5.31572 3 5.56809L3 8.4319C2.99997 8.68428 2.99994 8.93008 3.01695 9.13824C3.03563 9.36683 3.07969 9.63656 3.21799 9.90799C3.40974 10.2843 3.7157 10.5903 4.09202 10.782C4.36345 10.9203 4.63318 10.9644 4.86178 10.9831C5.06992 11.0001 5.3157 11 5.56807 11H18.4319C18.6843 11 18.9301 11.0001 19.1382 10.9831C19.3668 10.9644 19.6366 10.9203 19.908 10.782C20.2843 10.5903 20.5903 10.2843 20.782 9.90799C20.9203 9.63656 20.9644 9.36683 20.9831 9.13824C21.0001 8.93011 21 8.68437 21 8.43204V5.56809C21 5.31575 21.0001 5.0699 20.9831 4.86178C20.9644 4.63318 20.9203 4.36345 20.782 4.09202C20.5903 3.7157 20.2843 3.40974 19.908 3.21799C19.6366 3.07969 19.3668 3.03563 19.1382 3.01695C18.9301 2.99994 18.6843 2.99997 18.4319 3L5.56811 3Z" fill="#444BD3"/>
</svg>
