<svg width="24" height="24" viewBox="0 0 24 24" fill="none" xmlns="http://www.w3.org/2000/svg">
<path fill-rule="evenodd" clip-rule="evenodd" d="M20.6757 4.26285C21.0828 4.63604 21.1103 5.26861 20.7372 5.67573L18.9928 7.57863L20.7071 9.2929C21.0976 9.68342 21.0976 10.3166 20.7071 10.7071C20.3166 11.0976 19.6834 11.0976 19.2929 10.7071L17.6401 9.05433L9.73715 17.6757L8.26285 16.3243L19.2628 4.32428C19.636 3.91716 20.2686 3.88966 20.6757 4.26285ZM3.29289 13.2929C3.68342 12.9024 4.31658 12.9024 4.70711 13.2929L7.70711 16.2929L6.29289 17.7071L3.29289 14.7071C2.90237 14.3166 2.90237 13.6834 3.29289 13.2929Z" fill="#90ECF4"/>
<path d="M4.58431 10.4141L6.5859 12.4158C7.36695 13.1968 8.63329 13.1968 9.41435 12.4158L13.4159 8.41414C14.197 7.63309 14.197 6.36677 13.4159 5.58572L11.4143 3.58414C10.6333 2.80309 9.36695 2.80309 8.58591 3.58414L4.58432 7.58572C3.80328 8.36677 3.80327 9.63309 4.58431 10.4141Z" fill="#444BD3"/>
<path d="M11 18C11 19.6569 9.65685 21 8 21C6.34315 21 5 19.6569 5 18C5 16.3431 6.34315 15 8 15C9.65685 15 11 16.3431 11 18Z" fill="#444BD3"/>
</svg>
