<svg width="24" height="24" viewBox="0 0 24 24" fill="none" xmlns="http://www.w3.org/2000/svg">
<path d="M17.8004 17.8005L4.28677 4.28687C2.89402 5.38564 2 7.08853 2 9.00019C2 15.4324 7.10783 18.8816 10.0225 20.3262C10.4388 20.5326 10.8104 20.6981 11.116 20.8255C11.6855 21.0629 12.3145 21.0629 12.884 20.8255C13.9924 20.3633 15.9699 19.4004 17.8004 17.8005Z" fill="#90ECF4"/>
<path d="M12 7.21187L10.6662 6.01806C10.6192 5.97597 10.5712 5.93499 10.5222 5.89516C10.2173 5.64696 10 5.2926 10 4.89945C10 4.13904 10.7575 3.61583 11.385 4.04536C11.6005 4.19289 11.806 4.35412 12 4.52779C13.0615 3.57771 14.4633 3 16 3C19.3137 3 22 5.68634 22 9.00005C22 11.1186 21.4459 12.9135 20.5986 14.4199C20.2896 14.9692 19.5465 15.0311 19.1007 14.5857C18.7593 14.2446 18.7102 13.7136 18.9387 13.2885C19.5907 12.0756 20 10.6581 20 9.00004C20 6.7909 18.2091 5 16 5C14.9742 5 14.0428 5.38348 13.3338 6.01806L12 7.21187Z" fill="#90ECF4"/>
<path fill-rule="evenodd" clip-rule="evenodd" d="M2.29289 2.29289C2.68342 1.90237 3.31658 1.90237 3.70711 2.29289L21.7071 20.2929C22.0976 20.6834 22.0976 21.3166 21.7071 21.7071C21.3166 22.0976 20.6834 22.0976 20.2929 21.7071L2.29289 3.70711C1.90237 3.31658 1.90237 2.68342 2.29289 2.29289Z" fill="#444BD3"/>
</svg>
