<svg width="24" height="24" viewBox="0 0 24 24" fill="none" xmlns="http://www.w3.org/2000/svg">
<path fill-rule="evenodd" clip-rule="evenodd" d="M7.26086 9.84822C8.50762 8.70072 10.172 8 12 8C13.8281 8 15.4924 8.70072 16.7392 9.84822L19.8101 4.21828C20.3553 3.21872 19.6318 2 18.4932 2H15.1769C14.4506 2 13.7813 2.39378 13.4286 3.02871L12 5.60016L10.5714 3.02871C10.2187 2.39378 9.54943 2 8.8231 2H5.50682C4.36823 2 3.64476 3.21872 4.18998 4.21828L7.26086 9.84822Z" fill="#444BD3"/>
<path d="M19 15C19 18.866 15.866 22 12 22C8.13401 22 5 18.866 5 15C5 11.134 8.13401 8 12 8C15.866 8 19 11.134 19 15Z" fill="#90ECF4"/>
<path fill-rule="evenodd" clip-rule="evenodd" d="M12 17C13.1046 17 14 16.1046 14 15C14 13.8954 13.1046 13 12 13C10.8954 13 10 13.8954 10 15C10 16.1046 10.8954 17 12 17Z" fill="#444BD3"/>
</svg>
