<svg width="24" height="24" viewBox="0 0 24 24" fill="none" xmlns="http://www.w3.org/2000/svg">
<path d="M3 9.4C3 7.15979 3 6.03968 3.43597 5.18404C3.81947 4.43139 4.43139 3.81947 5.18404 3.43597C6.03968 3 7.15979 3 9.4 3H14.6C16.8402 3 17.9603 3 18.816 3.43597C19.5686 3.81947 20.1805 4.43139 20.564 5.18404C21 6.03968 21 7.15979 21 9.4V14.6C21 16.8402 21 17.9603 20.564 18.816C20.1805 19.5686 19.5686 20.1805 18.816 20.564C17.9603 21 16.8402 21 14.6 21H9.4C7.15979 21 6.03968 21 5.18404 20.564C4.43139 20.1805 3.81947 19.5686 3.43597 18.816C3 17.9603 3 16.8402 3 14.6V9.4Z" fill="#90ECF4"/>
<path fill-rule="evenodd" clip-rule="evenodd" d="M8 13C8.55228 13 9 12.5523 9 12C9 11.4477 8.55228 11 8 11C7.44772 11 7 11.4477 7 12C7 12.5523 7.44772 13 8 13ZM13 12C13 12.5523 12.5523 13 12 13C11.4477 13 11 12.5523 11 12C11 11.4477 11.4477 11 12 11C12.5523 11 13 11.4477 13 12ZM17 12C17 12.5523 16.5523 13 16 13C15.4477 13 15 12.5523 15 12C15 11.4477 15.4477 11 16 11C16.5523 11 17 11.4477 17 12Z" fill="#444BD3"/>
</svg>
