<svg width="24" height="24" viewBox="0 0 24 24" fill="none" xmlns="http://www.w3.org/2000/svg">
<path d="M18 3C18 2.44772 17.5523 2 17 2C16.4477 2 16 2.44772 16 3L16 21C16 21.5523 16.4477 22 17 22C17.5523 22 18 21.5523 18 21L18 3Z" fill="#90ECF4"/>
<path d="M8 3C8 2.44772 7.55229 2 7 2C6.44772 2 6 2.44772 6 3L6 21C6 21.5523 6.44772 22 7 22C7.55228 22 8 21.5523 8 21L8 3Z" fill="#90ECF4"/>
<path d="M14 16C14 17.6569 15.3431 19 17 19C18.6569 19 20 17.6569 20 16C20 14.3431 18.6569 13 17 13C15.3431 13 14 14.3431 14 16Z" fill="#444BD3"/>
<path d="M4 8C4 9.65685 5.34315 11 7 11C8.65685 11 10 9.65685 10 8C10 6.34315 8.65685 5 7 5C5.34315 5 4 6.34315 4 8Z" fill="#444BD3"/>
</svg>
