<svg width="24" height="24" viewBox="0 0 24 24" fill="none" xmlns="http://www.w3.org/2000/svg">
<path d="M5 11H19L17.4823 18.5883C17.2019 19.9906 15.9706 21 14.5406 21H9.45941C8.02937 21 6.79812 19.9906 6.51767 18.5883L5 11Z" fill="#90ECF4"/>
<path fill-rule="evenodd" clip-rule="evenodd" d="M10 14C9.44772 14 9 14.4477 9 15V17C9 17.5523 9.44772 18 10 18C10.5523 18 11 17.5523 11 17V15C11 14.4477 10.5523 14 10 14ZM14 14C13.4477 14 13 14.4477 13 15V17C13 17.5523 13.4477 18 14 18C14.5523 18 15 17.5523 15 17V15C15 14.4477 14.5523 14 14 14Z" fill="#444BD3"/>
<path fill-rule="evenodd" clip-rule="evenodd" d="M10.7071 4.70711C11.0976 4.31658 11.0976 3.68342 10.7071 3.29289C10.3166 2.90237 9.68342 2.90237 9.29289 3.29289L4.29289 8.29289C3.90237 8.68342 3.90237 9.31658 4.29289 9.70711C4.68342 10.0976 5.31658 10.0976 5.70711 9.70711L10.7071 4.70711ZM13.2929 4.70711C12.9024 4.31658 12.9024 3.68342 13.2929 3.29289C13.6834 2.90237 14.3166 2.90237 14.7071 3.29289L19.7071 8.29289C20.0976 8.68342 20.0976 9.31658 19.7071 9.70711C19.3166 10.0976 18.6834 10.0976 18.2929 9.70711L13.2929 4.70711Z" fill="#90ECF4"/>
<path d="M3 9.5C3 8.67157 3.67157 8 4.5 8H19.5C20.3284 8 21 8.67157 21 9.5C21 10.3284 20.3284 11 19.5 11H4.5C3.67157 11 3 10.3284 3 9.5Z" fill="#444BD3"/>
</svg>
