<svg width="24" height="24" viewBox="0 0 24 24" fill="none" xmlns="http://www.w3.org/2000/svg">
<path d="M3.0154 11.3031C2.83592 9.53546 4.22337 8 6.00006 8H18C19.7767 8 21.1641 9.53546 20.9846 11.3031L20.2739 18.3031C20.1183 19.8347 18.8287 21 17.2892 21H6.71082C5.17132 21 3.88169 19.8347 3.72617 18.3031L3.0154 11.3031Z" fill="#90ECF4"/>
<path fill-rule="evenodd" clip-rule="evenodd" d="M8 7C8 4.79086 9.79086 3 12 3C14.2091 3 16 4.79086 16 7V10C16 10.5523 15.5523 11 15 11C14.4477 11 14 10.5523 14 10V7C14 5.89543 13.1046 5 12 5C10.8954 5 10 5.89543 10 7V10C10 10.5523 9.55228 11 9 11C8.44772 11 8 10.5523 8 10V7Z" fill="#444BD3"/>
</svg>
