<svg width="24" height="24" viewBox="0 0 24 24" fill="none" xmlns="http://www.w3.org/2000/svg">
<path d="M22 6.00721C22 4.50659 20.4088 3.54048 19.0774 4.23273L14.2111 6.76289C13.9945 6.87552 13.7441 6.90501 13.5073 6.84579L10.6323 6.12706C10.132 6.00198 9.60275 6.075 9.15499 6.33086L3.00772 9.84358C2.38457 10.1997 2 10.8624 2 11.5801V17.9997C2 19.1043 2.89543 19.9997 4 19.9997H20C21.1046 19.9997 22 19.1043 22 17.9997V6.00721Z" fill="#90ECF4"/>
<path d="M9.12531 13.328L2.64888 15.7567C2.25857 15.903 2 16.2762 2 16.693V18C2 19.1046 2.89543 20 4 20H20C21.1046 20 22 19.1046 22 18V12C22 11.3018 21.3026 10.8185 20.6489 11.0637L14.8747 13.672C14.3051 13.8856 13.6839 13.921 13.0937 13.7734L10.9063 13.2266C10.3161 13.079 9.69495 13.1144 9.12531 13.328Z" fill="#444BD3"/>
</svg>
