<svg width="24" height="24" viewBox="0 0 24 24" fill="none" xmlns="http://www.w3.org/2000/svg">
<path d="M10.6091 2.93819C11.114 1.68644 12.8862 1.68644 13.3912 2.93819L15.3285 7.7403C15.3992 7.91573 15.563 8.0362 15.7515 8.05159L20.6176 8.44865C21.9371 8.55631 22.4803 10.1957 21.4863 11.07L17.7938 14.3177C17.6571 14.4379 17.5966 14.6228 17.6357 14.8006L18.8165 20.1676C19.1114 21.5083 17.5997 22.5081 16.4815 21.7118L12.2901 18.7275C12.1166 18.6039 11.8837 18.6039 11.7101 18.7275L7.51878 21.7118C6.40053 22.5081 4.88884 21.5083 5.1838 20.1676L6.36458 14.8006C6.40368 14.6228 6.34312 14.4379 6.20646 14.3177L2.51383 11.07C1.51977 10.1958 2.06302 8.5563 3.38246 8.44865L8.24877 8.05159C8.43731 8.0362 8.60102 7.91573 8.67179 7.7403L10.6091 2.93819Z" fill="#90ECF4"/>
</svg>
