<svg width="24" height="24" viewBox="0 0 24 24" fill="none" xmlns="http://www.w3.org/2000/svg">
<path d="M8.06629 8.06647L3.38258 8.44863C2.06315 8.55629 1.51989 10.1957 2.51395 11.07L6.20658 14.3177C6.34324 14.4379 6.4038 14.6228 6.3647 14.8005L5.18392 20.1676C4.88896 21.5083 6.40065 22.508 7.5189 21.7118L11.7102 18.7275C11.8838 18.6039 12.1167 18.6039 12.2903 18.7275L16.4816 21.7118C17.5999 22.508 19.1116 21.5083 18.8166 20.1676L18.4356 18.4358L8.06629 8.06647Z" fill="#90ECF4"/>
<path d="M19.2808 10.3462L15.5888 10.0449C14.6461 9.96799 13.8275 9.36565 13.4737 8.48851L12.0001 4.83578L11.7779 5.3866C11.5094 6.05218 10.6479 6.22659 10.1417 5.71786C9.85936 5.43418 9.77338 5.00951 9.92311 4.63836L10.609 2.93814C11.114 1.68639 12.8862 1.68639 13.3912 2.93814L15.3284 7.74026C15.3992 7.91569 15.5629 8.03616 15.7515 8.05154L20.6176 8.4486C21.937 8.55626 22.4803 10.1957 21.4862 11.07L18.9979 13.2585C18.6034 13.6055 18.0076 13.588 17.6342 13.2185C17.2222 12.8109 17.2418 12.1395 17.677 11.7568L19.2808 10.3462Z" fill="#90ECF4"/>
<path fill-rule="evenodd" clip-rule="evenodd" d="M2.29289 2.29289C2.68342 1.90237 3.31658 1.90237 3.70711 2.29289L21.7071 20.2929C22.0976 20.6834 22.0976 21.3166 21.7071 21.7071C21.3166 22.0976 20.6834 22.0976 20.2929 21.7071L2.29289 3.70711C1.90237 3.31658 1.90237 2.68342 2.29289 2.29289Z" fill="#444BD3"/>
</svg>
