<svg width="24" height="24" viewBox="0 0 24 24" fill="none" xmlns="http://www.w3.org/2000/svg">
<path fill-rule="evenodd" clip-rule="evenodd" d="M4 9C3.44772 9 3 9.44772 3 10V14C3 14.5523 3.44772 15 4 15C4.55228 15 5 14.5523 5 14V10C5 9.44772 4.55228 9 4 9ZM20 9C19.4477 9 19 9.44772 19 10V14C19 14.5523 19.4477 15 20 15C20.5523 15 21 14.5523 21 14V10C21 9.44772 20.5523 9 20 9Z" fill="#444BD3"/>
<path fill-rule="evenodd" clip-rule="evenodd" d="M7 9H17V16C17 17.1046 16.1046 18 15 18V20C15 20.5523 14.5523 21 14 21C13.4477 21 13 20.5523 13 20V18H11V20C11 20.5523 10.5523 21 10 21C9.44772 21 9 20.5523 9 20L9 18C7.89543 18 7 17.1046 7 16V9Z" fill="#90ECF4"/>
<path fill-rule="evenodd" clip-rule="evenodd" d="M8.55279 3.10556C9.04677 2.85857 9.64744 3.0588 9.89443 3.55278L10.2715 4.30683C10.8101 4.10836 11.3924 3.99999 12 3.99999C12.6076 3.99999 13.1899 4.10836 13.7285 4.30683L14.1056 3.55278C14.3526 3.0588 14.9532 2.85857 15.4472 3.10556C15.9412 3.35255 16.1414 3.95323 15.8944 4.4472L15.4348 5.36648C16.3986 6.27794 17 7.56873 17 8.99999H7C7 7.56873 7.60137 6.27794 8.56521 5.36648L8.10557 4.4472C7.85858 3.95323 8.05881 3.35255 8.55279 3.10556Z" fill="#444BD3"/>
</svg>
