<svg width="24" height="24" viewBox="0 0 24 24" fill="none" xmlns="http://www.w3.org/2000/svg">
<path fill-rule="evenodd" clip-rule="evenodd" d="M4 5.99998V9.99998H7C8.10457 9.99998 9 9.10455 9 7.99998C9 6.89542 8.10457 5.99998 7 5.99998H4ZM9.79978 10.8568C10.5405 10.1308 11 9.11905 11 7.99998C11 5.79085 9.20914 3.99998 7 3.99998H3.46667C2.65665 3.99998 2 4.65663 2 5.46665V18.4286C2 19.2964 2.70355 20 3.57143 20H7C9.76142 20 12 17.7614 12 15C12 13.2759 11.1274 11.7557 9.79978 10.8568ZM4 12V18H7C8.65685 18 10 16.6568 10 15C10 13.3431 8.65685 12 7 12H4Z" fill="#444BD3"/>
<path d="M16 4.99998C16 4.4477 16.4477 3.99998 17 3.99998H19C19.5523 3.99998 20 4.4477 20 4.99998C20 5.55227 19.5523 5.99998 19 5.99998H17C16.4477 5.99998 16 5.55227 16 4.99998Z" fill="#90ECF4"/>
<path fill-rule="evenodd" clip-rule="evenodd" d="M18 7.99998C15.7909 7.99998 14 9.79085 14 12V16C14 18.2091 15.7909 20 18 20C19.1848 20 20.2502 19.4836 20.9812 18.6669C21.3496 18.2554 21.3145 17.6232 20.903 17.2549C20.4915 16.8865 19.8593 16.9215 19.491 17.3331C19.1233 17.7438 18.5922 18 18 18C16.8954 18 16 17.1046 16 16V15H21C21.5523 15 22 14.5523 22 14V12C22 9.79085 20.2091 7.99998 18 7.99998ZM16 12C16 10.8954 16.8954 9.99998 18 9.99998C19.1046 9.99998 20 10.8954 20 12V13H16V12Z" fill="#90ECF4"/>
</svg>
