<svg width="24" height="24" viewBox="0 0 24 24" fill="none" xmlns="http://www.w3.org/2000/svg">
<path d="M22 12C22 17.5229 17.5228 22 12 22C6.47715 22 2 17.5229 2 12C2 6.47717 6.47715 2.00002 12 2.00002C17.5228 2.00002 22 6.47717 22 12Z" fill="#90ECF4"/>
<path d="M15.4739 21.3801C15.1188 18.85 14.5273 16.5537 13.6946 14.3832C11.6564 15.3714 9.37665 17.098 6.24201 20.1769C5.69355 19.79 5.18576 19.3493 4.7263 18.8625C8.01856 15.6158 10.5332 13.6746 12.9159 12.5385C12.6102 11.8757 12.2806 11.2223 11.9268 10.5749C9.12132 11.4591 5.92256 11.925 2 11.9916C2.00056 11.3052 2.07029 10.6349 2.2026 9.98737C5.66439 9.9132 8.46482 9.51254 10.8886 8.80043C9.76358 6.99519 8.44495 5.21327 6.92953 3.37897C7.52043 3.03069 8.15027 2.74142 8.81095 2.51927C10.3402 4.39881 11.6801 6.24609 12.8274 8.13525C14.9832 7.2832 16.894 6.13321 18.8013 4.66908C19.2916 5.12412 19.7361 5.62773 20.1273 6.17226C18.1434 7.7068 16.1203 8.95051 13.829 9.88808C14.1662 10.5179 14.4826 11.1546 14.778 11.8009C17.0447 11.0827 19.2758 11.0085 21.9507 11.0009C21.9833 11.3295 22 11.6628 22 12C22 12.338 21.9832 12.672 21.9505 13.0014C19.3662 13.0106 17.4495 13.0833 15.5567 13.6532C16.3694 15.7687 16.9706 18.0051 17.3566 20.4458C16.768 20.82 16.1375 21.1342 15.4739 21.3801Z" fill="#444BD3"/>
</svg>
