<svg width="24" height="24" viewBox="0 0 24 24" fill="none" xmlns="http://www.w3.org/2000/svg">
<path fill-rule="evenodd" clip-rule="evenodd" d="M16.5 2.00002H12V9.00002H7.5C5.567 9.00002 4 10.567 4 12.5C4 14.433 5.567 16 7.5 16H12V9.00002H16.5C18.433 9.00002 20 7.43301 20 5.50002C20 3.56702 18.433 2.00002 16.5 2.00002Z" fill="#444BD3"/>
<path fill-rule="evenodd" clip-rule="evenodd" d="M4 5.50002C4 3.56702 5.567 2.00002 7.5 2.00002H12V9.00002H7.5C5.567 9.00002 4 7.43301 4 5.50002ZM12 12.5C12 10.567 13.567 9.00002 15.5 9.00002C17.433 9.00002 19 10.567 19 12.5C19 14.433 17.433 16 15.5 16C13.567 16 12 14.433 12 12.5ZM7.5 16C5.567 16 4 17.567 4 19.5C4 21.433 5.567 23 7.5 23H8C10.2091 23 12 21.2092 12 19V16H7.5Z" fill="#90ECF4"/>
</svg>
