<svg width="24" height="24" viewBox="0 0 24 24" fill="none" xmlns="http://www.w3.org/2000/svg">
<path d="M4 4V19.9569C4 21.0853 4.91472 22 6.04308 22C6.64942 22 7.22444 21.7307 7.61261 21.2649L11.4003 16.7196C11.7803 16.2636 12.3432 16 12.9368 16H16.3101C17.2859 16 18.1192 15.2959 18.2821 14.3338L19.9749 4.33382C20.1815 3.11325 19.2409 2 18.003 2H6C4.89543 2 4 2.89543 4 4Z" fill="#90ECF4"/>
<path d="M19.3543 8H13C12.4477 8 12 8.44772 12 9C12 9.55228 12.4477 10 13 10H19.0157L19.3543 8Z" fill="#444BD3"/>
</svg>
