<svg width="24" height="24" viewBox="0 0 24 24" fill="none" xmlns="http://www.w3.org/2000/svg">
<path d="M22 12C22 17.5228 17.5228 22 12 22C10.5778 22 9.22492 21.7031 8 21.1679L5.20344 21.7497C4.58261 21.8788 3.99989 21.4049 3.99977 20.7708L3.99927 18C2.74389 16.3287 2 14.2512 2 12C2 6.47715 6.47715 2 12 2C17.5228 2 22 6.47715 22 12Z" fill="#90ECF4"/>
<path d="M9.45558 9.7776L6.70499 13.707C6.58637 13.8765 6.60653 14.1066 6.75279 14.2529C6.89647 14.3966 7.1216 14.4189 7.29067 14.3061L9.4627 12.8581C9.78972 12.6401 10.2141 12.6339 10.5474 12.8422L13.195 14.4969C13.6462 14.7789 14.2391 14.6583 14.5442 14.2224L17.2948 10.293C17.4134 10.1235 17.3933 9.89337 17.247 9.74711C17.1033 9.60342 16.8782 9.58113 16.7091 9.69384L14.5371 11.1419C14.2101 11.3599 13.7857 11.3661 13.4524 11.1578L10.8048 9.50306C10.3536 9.22108 9.76068 9.34174 9.45558 9.7776Z" fill="#444BD3"/>
</svg>
