<svg width="24" height="24" viewBox="0 0 24 24" fill="none" xmlns="http://www.w3.org/2000/svg">
<path d="M15 3.00001C15 2.44773 15.4477 2.00002 16 2.00002H19C19.5523 2.00002 20 2.44773 20 3.00002V20.9993C20 21.6529 19.3831 22.1309 18.7502 21.9676L15.7502 21.1936C15.3086 21.0796 15 20.6813 15 20.2253V3.00001Z" fill="#90ECF4"/>
<path d="M4 3.00002C4 2.44773 4.44772 2.00002 5 2.00002H8C8.55229 2.00002 9 2.44773 9 3.00002V20.2253C9 20.6813 8.69143 21.0796 8.24982 21.1936L5.24982 21.9676C4.61687 22.1309 4 21.6529 4 20.9993V3.00002Z" fill="#90ECF4"/>
<path d="M19.8604 20.4932L9.57979 2.98722C9.22064 2.37564 8.56444 2.00002 7.85519 2.00002H4.86708C4.48191 2.00002 4.24138 2.4172 4.43437 2.75054L14.7902 20.6375C14.9244 20.8694 15.1461 21.0377 15.4056 21.1047L18.7481 21.9678C19.6099 22.1904 20.3112 21.2607 19.8604 20.4932Z" fill="#444BD3"/>
</svg>
