<svg width="24" height="24" viewBox="0 0 24 24" fill="none" xmlns="http://www.w3.org/2000/svg">
<path d="M22 12C22 17.5228 17.5228 22 12 22C6.47715 22 2 17.5228 2 12C2 6.47715 6.47715 2 12 2C17.5228 2 22 6.47715 22 12Z" fill="#90ECF4"/>
<path d="M8.12328 21.2208L11.0367 10.7324C11.1846 10.2002 11.7358 9.88867 12.2679 10.0365C12.8 10.1843 13.1116 10.7355 12.9638 11.2676L11.9114 15.056C13.1625 15.3211 14.0398 15.0944 14.6273 14.7061C15.3703 14.215 15.8475 13.3358 15.967 12.2917C16.0867 11.2467 15.8308 10.1502 15.2462 9.33801C14.683 8.55555 13.7933 8 12.5003 8C10.5793 8 9.43594 8.83125 8.87815 9.85386C8.29753 10.9183 8.27885 12.3212 8.89466 13.5528C9.14165 14.0468 8.94142 14.6474 8.44744 14.8944C7.95346 15.1414 7.35279 14.9412 7.1058 14.4472C6.22163 12.6788 6.20297 10.5817 7.12236 8.89615C8.06458 7.16875 9.92121 6 12.5003 6C14.4572 6 15.9425 6.88195 16.8694 8.16961C17.7749 9.42759 18.1241 11.0338 17.954 12.5192C17.7839 14.0056 17.0765 15.4847 15.7301 16.3746C14.5812 17.134 13.1015 17.3769 11.3756 16.9852L10.0361 21.8072C9.37247 21.6751 8.73251 21.4772 8.12328 21.2208Z" fill="#444BD3"/>
</svg>
