<svg width="24" height="24" viewBox="0 0 24 24" fill="none" xmlns="http://www.w3.org/2000/svg">
<path d="M22 12C22 17.5228 17.5228 22 12 22C6.47715 22 2 17.5228 2 12C2 6.47715 6.47715 2 12 2C17.5228 2 22 6.47715 22 12Z" fill="#90ECF4"/>
<path fill-rule="evenodd" clip-rule="evenodd" d="M11 10V12H13C13.5523 12 14 11.5523 14 11C14 10.4477 13.5523 10 13 10H11ZM11 14H13C14.6569 14 16 12.6569 16 11C16 9.34315 14.6569 8 13 8H10.2941C9.5794 8 9 8.5794 9 9.29412V16C9 16.5523 9.44772 17 10 17C10.5523 17 11 16.5523 11 16V14Z" fill="#444BD3"/>
</svg>
