<svg width="24" height="24" viewBox="0 0 24 24" fill="none" xmlns="http://www.w3.org/2000/svg">
<path d="M11.2028 20.5979L3.30974 9.91905C3.10856 9.64688 3 9.31735 3 8.9789C3 8.66663 3.09243 8.36135 3.26565 8.10153L5.52913 4.70632C5.83012 4.25484 6.30164 3.94503 6.83551 3.84798L11.3226 3.03225C11.4406 3.01079 11.5603 3 11.6803 3H12.3197C12.4397 3 12.5594 3.01079 12.6774 3.03225L17.1647 3.84797C17.6986 3.94503 18.1701 4.25486 18.4711 4.70638L20.7344 8.10153C20.9076 8.36135 21 8.66663 21 8.97889C21 9.31735 20.8914 9.64688 20.6903 9.91907L12.7972 20.5979C12.6103 20.8508 12.3145 21 12 21C11.6855 21 11.3897 20.8508 11.2028 20.5979Z" fill="#90ECF4"/>
<path fill-rule="evenodd" clip-rule="evenodd" d="M12.7809 3.3753C12.5911 3.13809 12.3038 3 12 3C11.6962 3 11.4089 3.13809 11.2191 3.3753L7.51939 8H4C3.44772 8 3 8.44772 3 9C3 9.55228 3.44772 10 4 10H7.29958L11.0602 20.3417C11.2039 20.7369 11.5795 21 12 21C12.4205 21 12.7961 20.7369 12.9398 20.3417L16.7004 10H20C20.5523 10 21 9.55228 21 9C21 8.44772 20.5523 8 20 8H16.4806L12.7809 3.3753ZM13.9194 8L12 5.60078L10.0806 8H13.9194ZM9.42771 10L12 17.0738L14.5723 10H9.42771Z" fill="#444BD3"/>
</svg>
