<svg width="24" height="24" viewBox="0 0 24 24" fill="none" xmlns="http://www.w3.org/2000/svg">
<path d="M3 7.8C3 6.11984 3 5.27976 3.32698 4.63803C3.6146 4.07354 4.07354 3.6146 4.63803 3.32698C5.27976 3 6.11984 3 7.8 3H16.2C17.8802 3 18.7202 3 19.362 3.32698C19.9265 3.6146 20.3854 4.07354 20.673 4.63803C21 5.27976 21 6.11984 21 7.8V16.2C21 17.8802 21 18.7202 20.673 19.362C20.3854 19.9265 19.9265 20.3854 19.362 20.673C18.7202 21 17.8802 21 16.2 21H7.8C6.11984 21 5.27976 21 4.63803 20.673C4.07354 20.3854 3.6146 19.9265 3.32698 19.362C3 18.7202 3 17.8802 3 16.2V7.8Z" fill="#90ECF4"/>
<path fill-rule="evenodd" clip-rule="evenodd" d="M6.10899 6.54601C6 6.75992 6 7.03995 6 7.6V16.4C6 16.9601 6 17.2401 6.10899 17.454C6.20487 17.6422 6.35785 17.7951 6.54601 17.891C6.75992 18 7.03995 18 7.6 18H9.4C9.96005 18 10.2401 18 10.454 17.891C10.6422 17.7951 10.7951 17.6422 10.891 17.454C11 17.2401 11 16.9601 11 16.4V7.6C11 7.03995 11 6.75992 10.891 6.54601C10.7951 6.35785 10.6422 6.20487 10.454 6.10899C10.2401 6 9.96005 6 9.4 6H7.6C7.03995 6 6.75992 6 6.54601 6.10899C6.35785 6.20487 6.20487 6.35785 6.10899 6.54601ZM13.109 6.54601C13 6.75992 13 7.03995 13 7.6V10.4C13 10.9601 13 11.2401 13.109 11.454C13.2049 11.6422 13.3578 11.7951 13.546 11.891C13.7599 12 14.0399 12 14.6 12H16.4C16.9601 12 17.2401 12 17.454 11.891C17.6422 11.7951 17.7951 11.6422 17.891 11.454C18 11.2401 18 10.9601 18 10.4V7.6C18 7.03995 18 6.75992 17.891 6.54601C17.7951 6.35785 17.6422 6.20487 17.454 6.10899C17.2401 6 16.9601 6 16.4 6H14.6C14.0399 6 13.7599 6 13.546 6.10899C13.3578 6.20487 13.2049 6.35785 13.109 6.54601Z" fill="#444BD3"/>
</svg>
