<svg width="24" height="24" viewBox="0 0 24 24" fill="none" xmlns="http://www.w3.org/2000/svg">
<path d="M11 4.96892C11 4.65329 11 4.49548 10.9361 4.38154C10.88 4.2815 10.7912 4.20379 10.6846 4.16144C10.5632 4.11321 10.4068 4.13413 10.0939 4.17598L5.22645 4.82706C5.0056 4.85657 4.7877 4.88569 4.60336 4.92493C4.39877 4.96847 4.16285 5.03807 3.93032 5.18526C3.6041 5.39175 3.34462 5.68825 3.1832 6.03897C3.06814 6.28897 3.03043 6.53203 3.0144 6.74058C2.99995 6.9285 2.99997 7.14833 3 7.37115V10.2C3 10.48 3 10.62 3.0545 10.727C3.10244 10.8211 3.17893 10.8975 3.27301 10.9455C3.37996 11 3.51998 11 3.8 11H10.2C10.48 11 10.62 11 10.727 10.9455C10.8211 10.8975 10.8976 10.8211 10.9455 10.727C11 10.62 11 10.48 11 10.2V4.96892Z" fill="#90ECF4"/>
<path d="M13 19.5125C13 19.7606 13 19.8846 13.0458 19.9841C13.0862 20.0718 13.151 20.1459 13.2326 20.1976C13.3251 20.2561 13.4481 20.2726 13.6939 20.3055L18.0897 20.8934C18.3728 20.9313 18.6444 20.9676 18.8747 20.9786C19.1243 20.9904 19.4267 20.9799 19.7384 20.856C20.1648 20.6866 20.52 20.3758 20.7444 19.9756C20.9085 19.683 20.959 19.3847 20.9804 19.1358C21.0001 18.9061 21 18.632 21 18.3464V13.8C21 13.52 21 13.3799 20.9455 13.273C20.8976 13.1789 20.8211 13.1024 20.727 13.0545C20.62 13 20.48 13 20.2 13H13.8C13.52 13 13.38 13 13.273 13.0545C13.1789 13.1024 13.1024 13.1789 13.0545 13.273C13 13.3799 13 13.52 13 13.8V19.5125Z" fill="#90ECF4"/>
<path d="M21 10.5C21 10.7761 20.7761 11 20.5 11H13.5C13.2239 11 13 10.7761 13 10.5V4.22485C13 3.97433 13.1854 3.76248 13.4337 3.72927L18.0897 3.10648C18.3727 3.06858 18.6444 3.03221 18.8747 3.02128C19.1243 3.00944 19.4266 3.01997 19.7384 3.14384C20.1648 3.31322 20.52 3.62405 20.7444 4.0242C20.9085 4.3168 20.959 4.61512 20.9804 4.86404C21.0001 5.09374 21 5.36783 21 5.65343V10.5Z" fill="#444BD3"/>
<path d="M3 13.5C3 13.2239 3.22386 13 3.5 13H10.5C10.7761 13 11 13.2239 11 13.5V19.3738C11 19.6763 10.7335 19.9095 10.4337 19.8694L5.22647 19.173C5.00562 19.1435 4.78773 19.1144 4.60338 19.0751C4.39879 19.0316 4.16287 18.962 3.93034 18.8148C3.60411 18.6083 3.34462 18.3118 3.1832 17.9611C3.06814 17.7111 3.03043 17.468 3.0144 17.2595C2.99995 17.0715 2.99997 16.8517 3 16.6289V13.5Z" fill="#444BD3"/>
</svg>
